<mxfile host="app.diagrams.net" modified="2021-08-10T06:28:38.564Z" agent="5.0 (X11; Linux x86_64) AppleWebKit/537.36 (KHTML, like Gecko) Chrome/92.0.4515.107 Safari/537.36" etag="UyOQTMghptdxk9yI4MSG" version="14.9.4" type="github">
  <diagram id="BjNxS_HSdl3xmiT8jZ2T" name="Page-1">
    <mxGraphModel dx="1276" dy="880" grid="1" gridSize="10" guides="1" tooltips="1" connect="1" arrows="1" fold="1" page="1" pageScale="1" pageWidth="827" pageHeight="1169" math="0" shadow="0">
      <root>
        <mxCell id="0" />
        <mxCell id="1" parent="0" />
        <mxCell id="Pj1qxsf6IQtT82YWSdKg-1" value="Proto definition" style="rounded=0;whiteSpace=wrap;html=1;fillColor=#ffe6cc;strokeColor=#d79b00;" vertex="1" parent="1">
          <mxGeometry x="100" y="360" width="110" height="80" as="geometry" />
        </mxCell>
        <mxCell id="Pj1qxsf6IQtT82YWSdKg-4" value="" style="endArrow=classic;html=1;" edge="1" parent="1">
          <mxGeometry width="50" height="50" relative="1" as="geometry">
            <mxPoint x="220" y="399.5" as="sourcePoint" />
            <mxPoint x="300" y="399.5" as="targetPoint" />
          </mxGeometry>
        </mxCell>
        <mxCell id="Pj1qxsf6IQtT82YWSdKg-5" value="buf" style="text;html=1;strokeColor=none;fillColor=none;align=center;verticalAlign=middle;whiteSpace=wrap;rounded=0;" vertex="1" parent="1">
          <mxGeometry x="240" y="370" width="40" height="20" as="geometry" />
        </mxCell>
        <mxCell id="Pj1qxsf6IQtT82YWSdKg-6" value="Descripter" style="rounded=0;whiteSpace=wrap;html=1;fillColor=#dae8fc;strokeColor=#6c8ebf;" vertex="1" parent="1">
          <mxGeometry x="310" y="370" width="120" height="60" as="geometry" />
        </mxCell>
        <mxCell id="Pj1qxsf6IQtT82YWSdKg-7" value="JAVA client lib" style="rounded=0;whiteSpace=wrap;html=1;" vertex="1" parent="1">
          <mxGeometry x="540" y="295" width="120" height="50" as="geometry" />
        </mxCell>
        <mxCell id="Pj1qxsf6IQtT82YWSdKg-8" value="JS client lib" style="rounded=0;whiteSpace=wrap;html=1;" vertex="1" parent="1">
          <mxGeometry x="540" y="355" width="120" height="50" as="geometry" />
        </mxCell>
        <mxCell id="Pj1qxsf6IQtT82YWSdKg-9" value="Golang client lib" style="rounded=0;whiteSpace=wrap;html=1;" vertex="1" parent="1">
          <mxGeometry x="540" y="415" width="120" height="50" as="geometry" />
        </mxCell>
        <mxCell id="Pj1qxsf6IQtT82YWSdKg-10" value="mvn repo" style="rounded=1;whiteSpace=wrap;html=1;" vertex="1" parent="1">
          <mxGeometry x="800" y="300" width="90" height="40" as="geometry" />
        </mxCell>
        <mxCell id="Pj1qxsf6IQtT82YWSdKg-11" value="npm repo" style="rounded=1;whiteSpace=wrap;html=1;" vertex="1" parent="1">
          <mxGeometry x="800" y="420" width="90" height="40" as="geometry" />
        </mxCell>
        <mxCell id="Pj1qxsf6IQtT82YWSdKg-12" value="npm repo" style="rounded=1;whiteSpace=wrap;html=1;" vertex="1" parent="1">
          <mxGeometry x="800" y="360" width="90" height="40" as="geometry" />
        </mxCell>
        <mxCell id="Pj1qxsf6IQtT82YWSdKg-13" value="" style="endArrow=classic;html=1;entryX=0;entryY=0.5;entryDx=0;entryDy=0;entryPerimeter=0;exitX=1;exitY=0.367;exitDx=0;exitDy=0;exitPerimeter=0;" edge="1" parent="1" source="Pj1qxsf6IQtT82YWSdKg-6" target="Pj1qxsf6IQtT82YWSdKg-7">
          <mxGeometry width="50" height="50" relative="1" as="geometry">
            <mxPoint x="310" y="550" as="sourcePoint" />
            <mxPoint x="360" y="500" as="targetPoint" />
            <Array as="points">
              <mxPoint x="460" y="350" />
              <mxPoint x="500" y="330" />
            </Array>
          </mxGeometry>
        </mxCell>
        <mxCell id="Pj1qxsf6IQtT82YWSdKg-14" value="" style="endArrow=classic;html=1;entryX=0;entryY=0.5;entryDx=0;entryDy=0;exitX=1;exitY=0.5;exitDx=0;exitDy=0;" edge="1" parent="1" source="Pj1qxsf6IQtT82YWSdKg-6" target="Pj1qxsf6IQtT82YWSdKg-8">
          <mxGeometry width="50" height="50" relative="1" as="geometry">
            <mxPoint x="410" y="520" as="sourcePoint" />
            <mxPoint x="460" y="470" as="targetPoint" />
          </mxGeometry>
        </mxCell>
        <mxCell id="Pj1qxsf6IQtT82YWSdKg-15" value="" style="endArrow=classic;html=1;entryX=0;entryY=0.5;entryDx=0;entryDy=0;exitX=1;exitY=0.75;exitDx=0;exitDy=0;" edge="1" parent="1" source="Pj1qxsf6IQtT82YWSdKg-6" target="Pj1qxsf6IQtT82YWSdKg-9">
          <mxGeometry width="50" height="50" relative="1" as="geometry">
            <mxPoint x="320" y="530" as="sourcePoint" />
            <mxPoint x="370" y="480" as="targetPoint" />
          </mxGeometry>
        </mxCell>
        <mxCell id="Pj1qxsf6IQtT82YWSdKg-16" value="Buf" style="text;html=1;strokeColor=none;fillColor=none;align=center;verticalAlign=middle;whiteSpace=wrap;rounded=0;" vertex="1" parent="1">
          <mxGeometry x="470" y="360" width="40" height="20" as="geometry" />
        </mxCell>
      </root>
    </mxGraphModel>
  </diagram>
</mxfile>
